# xmcd
#
# Track frame offsets:
#	150
#	20785
#	40440
#	60875
#	86055
#	111196
#	129431
#	145628
#	169301
#	194738
#	211229
#	234577
#	251356
#	278505
#	303822
#	329069
#
# Disc length: 4609 seconds
#
# Revision: 1
# Processed by: cddbd v1.4PL0 Copyright (c) Steve Scherf et al.
# Submitted via: EasyCDDAExtractor 6.0.0.1
#
DISCID=e411ff10
DTITLE=Lynyrd Skynyrd - Vicious Cycle
DYEAR=2003
DGENRE=Rock and Roll
TTITLE0=That's How I Like It
TTITLE1=Pick'Em Up
TTITLE2=Dead Man Walking
TTITLE3=The Way
TTITLE4=Red White And Blue
TTITLE5=Sweet Mama
TTITLE6=Funked Up
TTITLE7=Heaven Or Hell
TTITLE8=Mad Hatter
TTITLE9=Rockin Little Town
TTITLE10=Crawl
TTITLE11=Jake
TTITLE12=Life Lessons
TTITLE13=Lucky Man
TTITLE14=Red White And Blue (Alt Version)
TTITLE15=Gimme Back My Bullets (With Kid Rock)
EXTD=YEAR: 2003
EXTT0=
EXTT1=
EXTT2=
EXTT3=
EXTT4=
EXTT5=
EXTT6=
EXTT7=
EXTT8=
EXTT9=
EXTT10=
EXTT11=
EXTT12=
EXTT13=
EXTT14=
EXTT15=
PLAYORDER=
